<svg xmlns="http://www.w3.org/2000/svg" viewBox="0 0 48 48"><title>Workout - Fitness</title><g id="Workout_Fitness" data-name="Workout / Fitness"><path d="M45,35H13.41c-1.79-1.79-1.75-2-4.21-2l3.63-20H21a3,3,0,0,0,0-6H11.24L5.69,4.23A3,3,0,0,0,1.46,6.14,3,3,0,0,0,3,9.64l4,2C7,11.91,7.36,9.94,3.17,33A3,3,0,0,0,0,36v6a3,3,0,0,0,3,3H15a3,3,0,0,0,3-3V41H37.38l1.21,2.42A2.86,2.86,0,0,0,44,42.15V41h1a3,3,0,0,0,0-6ZM3.93,7.85A1,1,0,0,1,3.94,6c.59-.26.28-.27,6.61,2.89.31.16-.34.11,10.45.11a1,1,0,0,1,0,2H10.24ZM8.83,13h2L7.17,33h-2ZM16,42a1,1,0,0,1-1,1H3a1,1,0,0,1-1-1V41H16Zm26,.15a.86.86,0,0,1-1.62.38L39.62,41H42ZM45,39H2V36a1,1,0,0,1,1-1c7.82,0,7.48-.1,7.88.29C12.43,36.84,12.48,37,13,37H45A1,1,0,0,1,45,39Z"/></g></svg>